<?xml version="1.0" encoding="UTF-8"?>
<!DOCTYPE svg PUBLIC "-//W3C//DTD SVG 1.1//EN" "http://www.w3.org/Graphics/SVG/1.1/DTD/svg11.dtd">
<svg xmlns="http://www.w3.org/2000/svg">
	<symbol id="arrow" viewBox="0 0 6 10">
    <path d="M5 5L5.56569 5.56569C5.71571 5.41566 5.8 5.21217 5.8 5C5.8 4.78783 5.71571 4.58434 5.56569 4.43432L5 5ZM1.56569 0.434315C1.25327 0.121895 0.746735 0.121895 0.434315 0.434314C0.121896 0.746734 0.121896 1.25327 0.434315 1.56569L1.56569 0.434315ZM0.434315 8.43431C0.121895 8.74673 0.121895 9.25327 0.434314 9.56569C0.746734 9.87811 1.25327 9.87811 1.56569 9.56569L0.434315 8.43431ZM0.434315 1.56569L4.43431 5.56569L5.56569 4.43432L1.56569 0.434315L0.434315 1.56569ZM4.43432 4.43431L0.434315 8.43431L1.56569 9.56569L5.56569 5.56569L4.43432 4.43431Z"/>
  </symbol>
	<symbol id="search" viewBox="0 0 18 18">
		<path d="M16.4343 17.5657C16.7467 17.8781 17.2533 17.8781 17.5657 17.5657C17.8781 17.2533 17.8781 16.7467 17.5657 16.4343L16.4343 17.5657ZM13.699 12.5676C13.3866 12.2552 12.8801 12.2552 12.5676 12.5676C12.2552 12.8801 12.2552 13.3866 12.5676 13.699L13.699 12.5676ZM14.4222 8.11111C14.4222 11.5966 11.5966 14.4222 8.11111 14.4222V16.0222C12.4803 16.0222 16.0222 12.4803 16.0222 8.11111H14.4222ZM8.11111 14.4222C4.62558 14.4222 1.8 11.5966 1.8 8.11111H0.2C0.2 12.4803 3.74193 16.0222 8.11111 16.0222V14.4222ZM1.8 8.11111C1.8 4.62558 4.62558 1.8 8.11111 1.8V0.2C3.74193 0.2 0.2 3.74193 0.2 8.11111H1.8ZM8.11111 1.8C11.5966 1.8 14.4222 4.62558 14.4222 8.11111H16.0222C16.0222 3.74193 12.4803 0.2 8.11111 0.2V1.8ZM17.5657 16.4343L13.699 12.5676L12.5676 13.699L16.4343 17.5657L17.5657 16.4343Z"/>
	</symbol>
	<symbol id="filter-line" viewBox="0 0 18 12">
		<path d="M1 0.2C0.558172 0.2 0.2 0.558172 0.2 1C0.2 1.44183 0.558172 1.8 1 1.8V0.2ZM17 1.8C17.4418 1.8 17.8 1.44183 17.8 1C17.8 0.558172 17.4418 0.2 17 0.2V1.8ZM3.66667 5.2C3.22484 5.2 2.86667 5.55817 2.86667 6C2.86667 6.44183 3.22484 6.8 3.66667 6.8V5.2ZM14.3333 6.8C14.7752 6.8 15.1333 6.44183 15.1333 6C15.1333 5.55817 14.7752 5.2 14.3333 5.2V6.8ZM6.33333 10.2C5.89151 10.2 5.53333 10.5582 5.53333 11C5.53333 11.4418 5.89151 11.8 6.33333 11.8V10.2ZM11.6667 11.8C12.1085 11.8 12.4667 11.4418 12.4667 11C12.4667 10.5582 12.1085 10.2 11.6667 10.2V11.8ZM1 1.8H17V0.2H1V1.8ZM3.66667 6.8H14.3333V5.2H3.66667V6.8ZM6.33333 11.8H11.6667V10.2H6.33333V11.8Z"/>
	</symbol>
	<symbol id="cross" viewBox="0 0 10 10">
		<path d="M9.56569 1.56569C9.8781 1.25327 9.8781 0.746734 9.56569 0.434315C9.25327 0.121895 8.74673 0.121895 8.43431 0.434315L9.56569 1.56569ZM0.434315 8.43431C0.121895 8.74673 0.121895 9.25327 0.434315 9.56569C0.746734 9.8781 1.25327 9.8781 1.56569 9.56569L0.434315 8.43431ZM1.56569 0.434315C1.25327 0.121895 0.746734 0.121895 0.434315 0.434315C0.121895 0.746734 0.121895 1.25327 0.434315 1.56569L1.56569 0.434315ZM8.43431 9.56569C8.74673 9.8781 9.25327 9.8781 9.56569 9.56569C9.8781 9.25327 9.8781 8.74673 9.56569 8.43431L8.43431 9.56569ZM8.43431 0.434315L0.434315 8.43431L1.56569 9.56569L9.56569 1.56569L8.43431 0.434315ZM0.434315 1.56569L8.43431 9.56569L9.56569 8.43431L1.56569 0.434315L0.434315 1.56569Z"/>
	</symbol>
	<symbol id="cross-circle" viewBox="0 0 18 18">
		<path d="M9.8 5.8C9.8 5.35817 9.44183 5 9 5C8.55817 5 8.2 5.35817 8.2 5.8H9.8ZM8.2 12.2C8.2 12.6418 8.55817 13 9 13C9.44183 13 9.8 12.6418 9.8 12.2H8.2ZM5.8 8.2C5.35817 8.2 5 8.55817 5 9C5 9.44183 5.35817 9.8 5.8 9.8V8.2ZM12.2 9.8C12.6418 9.8 13 9.44183 13 9C13 8.55817 12.6418 8.2 12.2 8.2V9.8ZM16.2 9C16.2 12.9765 12.9765 16.2 9 16.2V17.8C13.8601 17.8 17.8 13.8601 17.8 9H16.2ZM9 16.2C5.02355 16.2 1.8 12.9765 1.8 9H0.2C0.2 13.8601 4.13989 17.8 9 17.8V16.2ZM1.8 9C1.8 5.02355 5.02355 1.8 9 1.8V0.2C4.13989 0.2 0.2 4.13989 0.2 9H1.8ZM9 1.8C12.9765 1.8 16.2 5.02355 16.2 9H17.8C17.8 4.13989 13.8601 0.2 9 0.2V1.8ZM8.2 5.8V12.2H9.8V5.8H8.2ZM5.8 9.8H12.2V8.2H5.8V9.8Z"/>
	</symbol>
	<symbol id="line-circle" viewBox="0 0 18 18">
		<path d="M5.8 8.2C5.35817 8.2 5 8.55817 5 9C5 9.44183 5.35817 9.8 5.8 9.8V8.2ZM12.2 9.8C12.6418 9.8 13 9.44183 13 9C13 8.55817 12.6418 8.2 12.2 8.2V9.8ZM16.2 9C16.2 12.9764 12.9764 16.2 9 16.2V17.8C13.8601 17.8 17.8 13.8601 17.8 9H16.2ZM9 16.2C5.02355 16.2 1.8 12.9764 1.8 9H0.2C0.2 13.8601 4.13989 17.8 9 17.8V16.2ZM1.8 9C1.8 5.02355 5.02355 1.8 9 1.8V0.2C4.13989 0.2 0.2 4.13989 0.2 9H1.8ZM9 1.8C12.9764 1.8 16.2 5.02355 16.2 9H17.8C17.8 4.13989 13.8601 0.2 9 0.2V1.8ZM5.8 9.8H12.2V8.2H5.8V9.8Z"/>
	</symbol>
	<symbol id="home" viewBox="0 0 16 18">
		<path d="M1 6.6L0.500244 5.97531C0.310472 6.12712 0.2 6.35697 0.2 6.6H1ZM8 1L8.49976 0.375305C8.20758 0.141565 7.79242 0.141565 7.50024 0.375305L8 1ZM15 6.6H15.8C15.8 6.35697 15.6895 6.12712 15.4998 5.97531L15 6.6ZM1 15.4H0.2H1ZM4.86667 17C4.86667 17.4418 5.22484 17.8 5.66667 17.8C6.10849 17.8 6.46667 17.4418 6.46667 17H4.86667ZM5.66667 9V8.2C5.22484 8.2 4.86667 8.55817 4.86667 9H5.66667ZM10.3333 9H11.1333C11.1333 8.55817 10.7752 8.2 10.3333 8.2V9ZM9.53333 17C9.53333 17.4418 9.89151 17.8 10.3333 17.8C10.7752 17.8 11.1333 17.4418 11.1333 17H9.53333ZM1.49976 7.2247L8.49976 1.6247L7.50024 0.375305L0.500244 5.97531L1.49976 7.2247ZM7.50024 1.6247L14.5002 7.2247L15.4998 5.97531L8.49976 0.375305L7.50024 1.6247ZM14.2 6.6V15.4H15.8V6.6H14.2ZM14.2 15.4C14.2 15.6193 14.1151 15.8253 13.9708 15.9737L15.118 17.089C15.5571 16.6373 15.8 16.0294 15.8 15.4H14.2ZM13.9708 15.9737C13.8272 16.1214 13.6374 16.2 13.4444 16.2V17.8C14.0766 17.8 14.6781 17.5415 15.118 17.089L13.9708 15.9737ZM13.4444 16.2H2.55556V17.8H13.4444V16.2ZM2.55556 16.2C2.36256 16.2 2.17275 16.1214 2.02921 15.9737L0.882016 17.089C1.32192 17.5415 1.92343 17.8 2.55556 17.8V16.2ZM2.02921 15.9737C1.88492 15.8253 1.8 15.6193 1.8 15.4H0.2C0.2 16.0294 0.442856 16.6373 0.882016 17.089L2.02921 15.9737ZM1.8 15.4V6.6H0.2V15.4H1.8ZM6.46667 17V9H4.86667V17H6.46667ZM5.66667 9.8H10.3333V8.2H5.66667V9.8ZM9.53333 9V17H11.1333V9H9.53333Z"/>
	</symbol>
	<symbol id="browse" viewBox="0 0 18 18">
		<path d="M12.392 5.608L13.1509 5.86098C13.2468 5.57351 13.172 5.25658 12.9577 5.04232C12.7434 4.82805 12.4265 4.75323 12.139 4.84905L12.392 5.608ZM10.696 10.696L10.949 11.4549C11.1879 11.3753 11.3753 11.1879 11.4549 10.949L10.696 10.696ZM5.608 12.392L4.84905 12.139C4.75323 12.4265 4.82805 12.7434 5.04232 12.9577C5.25658 13.172 5.57351 13.2468 5.86098 13.1509L5.608 12.392ZM7.304 7.304L7.05102 6.54505C6.81213 6.62468 6.62468 6.81213 6.54505 7.05102L7.304 7.304ZM16.2 9C16.2 12.9765 12.9765 16.2 9 16.2V17.8C13.8601 17.8 17.8 13.8601 17.8 9H16.2ZM9 16.2C5.02355 16.2 1.8 12.9765 1.8 9H0.2C0.2 13.8601 4.13989 17.8 9 17.8V16.2ZM1.8 9C1.8 5.02355 5.02355 1.8 9 1.8V0.2C4.13989 0.2 0.2 4.13989 0.2 9H1.8ZM9 1.8C12.9765 1.8 16.2 5.02355 16.2 9H17.8C17.8 4.13989 13.8601 0.2 9 0.2V1.8ZM11.6331 5.35502L9.93705 10.443L11.4549 10.949L13.1509 5.86098L11.6331 5.35502ZM10.443 9.93705L5.35502 11.6331L5.86098 13.1509L10.949 11.4549L10.443 9.93705ZM6.36695 12.645L8.06295 7.55698L6.54505 7.05102L4.84905 12.139L6.36695 12.645ZM7.55698 8.06295L12.645 6.36695L12.139 4.84905L7.05102 6.54505L7.55698 8.06295Z"/>
	</symbol>
	<symbol id="account" viewBox="0 0 18 18">
		<path d="M14.2 17C14.2 17.4418 14.5582 17.8 15 17.8C15.4418 17.8 15.8 17.4418 15.8 17H14.2ZM11.5 11.6667V10.8667V11.6667ZM4.5 11.6667V10.8667V11.6667ZM1 15.2222H0.2H1ZM0.2 17C0.2 17.4418 0.558172 17.8 1 17.8C1.44183 17.8 1.8 17.4418 1.8 17H0.2ZM15.8 17V15.2222H14.2V17H15.8ZM15.8 15.2222C15.8 14.0711 15.35 12.9646 14.545 12.1469L13.4048 13.2693C13.9125 13.7851 14.2 14.4874 14.2 15.2222H15.8ZM14.545 12.1469C13.7396 11.3287 12.6445 10.8667 11.5 10.8667V12.4667C12.212 12.4667 12.8974 12.7539 13.4048 13.2693L14.545 12.1469ZM11.5 10.8667H4.5V12.4667H11.5V10.8667ZM4.5 10.8667C3.35547 10.8667 2.26041 11.3287 1.455 12.1469L2.59525 13.2693C3.1026 12.7539 3.78802 12.4667 4.5 12.4667V10.8667ZM1.455 12.1469C0.650023 12.9646 0.2 14.0711 0.2 15.2222H1.8C1.8 14.4874 2.08747 13.7851 2.59525 13.2693L1.455 12.1469ZM0.2 15.2222V17H1.8V15.2222H0.2ZM10.7 4.55556C10.7 6.08933 9.47934 7.31111 8 7.31111V8.91111C10.3867 8.91111 12.3 6.94914 12.3 4.55556H10.7ZM8 7.31111C6.52066 7.31111 5.3 6.08933 5.3 4.55556H3.7C3.7 6.94914 5.61334 8.91111 8 8.91111V7.31111ZM5.3 4.55556C5.3 3.02178 6.52066 1.8 8 1.8V0.2C5.61334 0.2 3.7 2.16197 3.7 4.55556H5.3ZM8 1.8C9.47934 1.8 10.7 3.02178 10.7 4.55556H12.3C12.3 2.16197 10.3867 0.2 8 0.2V1.8Z"/>
	</symbol>
	<symbol id="cart" viewBox="0 0 20 18">
		<path d="M1 0.2C0.558172 0.2 0.2 0.558172 0.2 1C0.2 1.44183 0.558172 1.8 1 1.8V0.2ZM4.27273 1L5.05357 0.825989C4.97205 0.460183 4.64751 0.2 4.27273 0.2V1ZM6.46545 10.8395L7.24981 10.6821C7.2487 10.6765 7.24753 10.671 7.2463 10.6655L6.46545 10.8395ZM8.10182 12.1429V11.3429C8.09676 11.3429 8.09171 11.3429 8.08665 11.343L8.10182 12.1429ZM16.0545 12.1429L16.0697 11.343C16.0647 11.3429 16.0596 11.3429 16.0545 11.3429V12.1429ZM17.6909 10.8395L16.9106 10.6632C16.9092 10.6694 16.9078 10.6757 16.9066 10.6821L17.6909 10.8395ZM19 5.04762L19.7803 5.22399C19.8339 4.98681 19.7767 4.73812 19.6249 4.54817C19.4731 4.35821 19.2432 4.24762 19 4.24762V5.04762ZM5.09091 4.24762C4.64908 4.24762 4.29091 4.60579 4.29091 5.04762C4.29091 5.48945 4.64908 5.84762 5.09091 5.84762V4.24762ZM7.56364 16.1905C7.56364 16.192 7.56349 16.1917 7.56374 16.1911C7.56374 16.1911 7.56318 16.1924 7.56133 16.1942C7.55947 16.196 7.55727 16.1975 7.55509 16.1984C7.55342 16.1991 7.55066 16.2 7.54545 16.2V17.8C8.43111 17.8 9.16364 17.0874 9.16364 16.1905H7.56364ZM7.54545 16.2C7.54025 16.2 7.53749 16.1991 7.53582 16.1984C7.53364 16.1975 7.53143 16.196 7.52958 16.1942C7.52773 16.1924 7.52717 16.1911 7.52717 16.1911C7.52742 16.1917 7.52727 16.192 7.52727 16.1905H5.92727C5.92727 17.0874 6.6598 17.8 7.54545 17.8V16.2ZM7.52727 16.1905C7.52727 16.1889 7.52742 16.1893 7.52717 16.1898C7.52717 16.1899 7.52773 16.1886 7.52958 16.1867C7.53143 16.1849 7.53364 16.1835 7.53582 16.1826C7.53749 16.1819 7.54025 16.181 7.54545 16.181V14.581C6.6598 14.581 5.92727 15.2936 5.92727 16.1905H7.52727ZM7.54545 16.181C7.55066 16.181 7.55342 16.1819 7.55509 16.1826C7.55727 16.1835 7.55948 16.1849 7.56133 16.1867C7.56318 16.1886 7.56374 16.1899 7.56374 16.1898C7.56349 16.1893 7.56364 16.1889 7.56364 16.1905H9.16364C9.16364 15.2936 8.43111 14.581 7.54545 14.581V16.181ZM16.5636 16.1905C16.5636 16.192 16.5635 16.1917 16.5637 16.1911C16.5637 16.1911 16.5632 16.1924 16.5613 16.1942C16.5595 16.196 16.5573 16.1975 16.5551 16.1984C16.5534 16.1991 16.5507 16.2 16.5455 16.2V17.8C17.4311 17.8 18.1636 17.0874 18.1636 16.1905H16.5636ZM16.5455 16.2C16.5403 16.2 16.5375 16.1991 16.5358 16.1984C16.5336 16.1975 16.5314 16.196 16.5296 16.1942C16.5277 16.1924 16.5272 16.1911 16.5272 16.1911C16.5274 16.1917 16.5273 16.192 16.5273 16.1905H14.9273C14.9273 17.0874 15.6598 17.8 16.5455 17.8V16.2ZM16.5273 16.1905C16.5273 16.1889 16.5274 16.1893 16.5272 16.1898C16.5272 16.1899 16.5277 16.1886 16.5296 16.1867C16.5314 16.1849 16.5336 16.1835 16.5358 16.1826C16.5375 16.1819 16.5403 16.181 16.5455 16.181V14.581C15.6598 14.581 14.9273 15.2936 14.9273 16.1905H16.5273ZM16.5455 16.181C16.5507 16.181 16.5534 16.1819 16.5551 16.1826C16.5573 16.1835 16.5595 16.1849 16.5613 16.1867C16.5632 16.1886 16.5637 16.1899 16.5637 16.1898C16.5635 16.1893 16.5636 16.1889 16.5636 16.1905H18.1636C18.1636 15.2936 17.4311 14.581 16.5455 14.581V16.181ZM1 1.8H4.27273V0.2H1V1.8ZM3.49188 1.17401L5.68461 11.0135L7.2463 10.6655L5.05357 0.825989L3.49188 1.17401ZM5.6811 10.997C5.79329 11.5558 6.10023 12.0561 6.54594 12.4111L7.54277 11.1595C7.39016 11.038 7.28725 10.8686 7.24981 10.6821L5.6811 10.997ZM6.54594 12.4111C6.99147 12.7659 7.54762 12.9535 8.11698 12.9427L8.08665 11.343C7.88807 11.3468 7.69556 11.2812 7.54277 11.1595L6.54594 12.4111ZM8.10182 12.9429H16.0545V11.3429H8.10182V12.9429ZM16.0394 12.9427C16.6087 12.9535 17.1649 12.7659 17.6104 12.4111L16.6136 11.1595C16.4608 11.2812 16.2683 11.3468 16.0697 11.343L16.0394 12.9427ZM17.6104 12.4111C18.0561 12.0561 18.3631 11.5558 18.4753 10.997L16.9066 10.6821C16.8691 10.8686 16.7662 11.038 16.6136 11.1595L17.6104 12.4111ZM18.4712 11.0159L19.7803 5.22399L18.2197 4.87125L16.9106 10.6632L18.4712 11.0159ZM19 4.24762H5.09091V5.84762H19V4.24762Z"/>
	</symbol>
	<symbol id="pin" viewBox="0 0 16 18">
		<path d="M14.5 7.54545L15.3 7.54545L14.5 7.54545ZM8 17L7.5541 17.6642C7.8238 17.8453 8.1762 17.8453 8.4459 17.6642L8 17ZM1.5 7.54545H0.7H1.5ZM8 1V1.8V1ZM13.7 7.54545C13.7 9.77145 12.2601 11.9407 10.6673 13.6336C9.88698 14.4631 9.10395 15.1424 8.51516 15.6145C8.22139 15.8501 7.97757 16.0328 7.80876 16.1556C7.72439 16.2169 7.65888 16.2632 7.61536 16.2936C7.5936 16.3088 7.57736 16.3199 7.56701 16.327C7.56184 16.3305 7.55814 16.3331 7.55598 16.3345C7.55489 16.3353 7.55419 16.3357 7.55387 16.3359C7.55372 16.3361 7.55366 16.3361 7.55369 16.3361C7.55371 16.3361 7.55381 16.336 7.55382 16.336C7.55395 16.3359 7.5541 16.3358 8 17C8.4459 17.6642 8.4461 17.6641 8.44633 17.6639C8.44643 17.6639 8.44668 17.6637 8.4469 17.6635C8.44733 17.6632 8.44786 17.6629 8.44849 17.6625C8.44975 17.6616 8.45141 17.6605 8.45345 17.6591C8.45753 17.6564 8.46315 17.6525 8.47028 17.6476C8.48453 17.6379 8.50479 17.624 8.53064 17.6059C8.58233 17.5699 8.65647 17.5175 8.74983 17.4495C8.93649 17.3138 9.20049 17.1158 9.51609 16.8628C10.146 16.3576 10.988 15.6278 11.8327 14.73C13.4899 12.9684 15.3 10.4104 15.3 7.54545H13.7ZM8 17C8.4459 16.3358 8.44605 16.3359 8.44618 16.336C8.44619 16.336 8.44629 16.3361 8.44631 16.3361C8.44634 16.3361 8.44628 16.3361 8.44613 16.3359C8.44581 16.3357 8.44511 16.3353 8.44402 16.3345C8.44186 16.3331 8.43816 16.3305 8.43299 16.327C8.42264 16.3199 8.4064 16.3088 8.38464 16.2936C8.34112 16.2632 8.27561 16.2169 8.19124 16.1556C8.02243 16.0328 7.77861 15.8501 7.48484 15.6145C6.89605 15.1424 6.11302 14.4631 5.33267 13.6336C3.73993 11.9407 2.3 9.77145 2.3 7.54545H0.7C0.7 10.4104 2.51007 12.9684 4.16733 14.73C5.01198 15.6278 5.85395 16.3576 6.48391 16.8628C6.79951 17.1158 7.06351 17.3138 7.25017 17.4495C7.34353 17.5175 7.41767 17.5699 7.46936 17.6059C7.49521 17.624 7.51547 17.6379 7.52972 17.6476C7.53685 17.6525 7.54247 17.6564 7.54655 17.6591C7.54859 17.6605 7.55025 17.6616 7.55151 17.6625C7.55213 17.6629 7.55267 17.6632 7.5531 17.6635C7.55332 17.6637 7.55357 17.6639 7.55367 17.6639C7.5539 17.6641 7.5541 17.6642 8 17ZM2.3 7.54545C2.3 6.01987 2.90188 4.55789 3.97146 3.48083L2.83615 2.35341C1.46776 3.73137 0.7 5.59911 0.7 7.54545L2.3 7.54545ZM3.97146 3.48083C5.04085 2.40396 6.49007 1.8 8 1.8V0.2C6.06211 0.2 4.20473 0.975258 2.83615 2.35341L3.97146 3.48083ZM8 1.8C9.50993 1.8 10.9591 2.40396 12.0285 3.48083L13.1638 2.35341C11.7953 0.975258 9.93789 0.2 8 0.2V1.8ZM12.0285 3.48083C13.0981 4.55789 13.7 6.01987 13.7 7.54545L15.3 7.54545C15.3 5.59911 14.5322 3.73137 13.1638 2.35341L12.0285 3.48083ZM9.36667 7.54545C9.36667 8.31388 8.74954 8.92727 8 8.92727V10.5273C9.64369 10.5273 10.9667 9.187 10.9667 7.54545H9.36667ZM8 8.92727C7.25046 8.92727 6.63333 8.31388 6.63333 7.54545H5.03333C5.03333 9.187 6.35631 10.5273 8 10.5273V8.92727ZM6.63333 7.54545C6.63333 6.77703 7.25046 6.16364 8 6.16364V4.56364C6.35631 4.56364 5.03333 5.90391 5.03333 7.54545H6.63333ZM8 6.16364C8.74954 6.16364 9.36667 6.77703 9.36667 7.54545H10.9667C10.9667 5.90391 9.64369 4.56364 8 4.56364V6.16364Z"/>
	</symbol>
</svg>
